<?xml version="1.0" encoding="UTF-8"?> <svg xmlns="http://www.w3.org/2000/svg" width="720" height="450" viewBox="0 0 720 450"><g id="Group_1339" data-name="Group 1339" transform="translate(-323 -1063)"><g id="Group_1338" data-name="Group 1338" transform="translate(216.475 599.934)"><path id="Path_2575" data-name="Path 2575" d="M220.115,732.16a83.481,83.481,0,1,1,69.558-129.568,15.112,15.112,0,0,0,12.572,6.793h0c11.915,0,19.241-13.27,12.668-23.209a113.551,113.551,0,0,0-100.335-50.952C156.505,538,109.421,585.083,106.656,643.156A113.561,113.561,0,0,0,314.83,711.311a15.056,15.056,0,0,0-12.588-23.333h0A15.018,15.018,0,0,0,289.72,694.7,83.462,83.462,0,0,1,220.115,732.16Z" transform="translate(0 17.759)" fill="#007fb2" opacity="0.4"></path><path id="Path_2576" data-name="Path 2576" d="M491.24,732.16A83.481,83.481,0,1,0,421.68,602.592a15.107,15.107,0,0,1-12.571,6.793H409.1c-11.914,0-19.238-13.268-12.665-23.205a113.549,113.549,0,0,1,100.337-50.956C554.849,538,601.931,585.083,604.7,643.156a113.562,113.562,0,0,1-208.175,68.155,15.056,15.056,0,0,1,12.59-23.333h0a15.021,15.021,0,0,1,12.521,6.724A83.459,83.459,0,0,0,491.24,732.16Z" transform="translate(221.695 17.759)" fill="#007fb2"></path><path id="Path_2577" data-name="Path 2577" d="M305.782,565.2a83.457,83.457,0,0,1,69.605,37.459,15.023,15.023,0,0,0,12.521,6.724h0a15.057,15.057,0,0,0,12.59-23.333,113.5,113.5,0,0,0-189.433,0,15.057,15.057,0,0,0,12.59,23.333h0a15.025,15.025,0,0,0,12.521-6.724A83.455,83.455,0,0,1,305.782,565.2Z" transform="translate(78.688 17.758)" fill="#007fb2" opacity="0.6"></path><path id="Path_2578" data-name="Path 2578" d="M305.782,665.588a83.457,83.457,0,0,1-69.605-37.46,15.023,15.023,0,0,0-12.521-6.722h0a15.057,15.057,0,0,0-12.59,23.333,113.5,113.5,0,0,0,189.433,0,15.057,15.057,0,0,0-12.59-23.333h0a15.021,15.021,0,0,0-12.521,6.724A83.462,83.462,0,0,1,305.782,665.588Z" transform="translate(78.688 84.33)" fill="#007fb2" opacity="0.6"></path><path id="Path_2579" data-name="Path 2579" d="M398.661,565.2a83.452,83.452,0,0,1,69.6,37.459,15.028,15.028,0,0,0,12.523,6.724h0a15.056,15.056,0,0,0,12.588-23.333,113.5,113.5,0,0,0-189.432,0,15.056,15.056,0,0,0,12.588,23.333h0a15.028,15.028,0,0,0,12.523-6.724A83.453,83.453,0,0,1,398.661,565.2Z" transform="translate(150.323 17.758)" fill="#007fb2" opacity="0.8"></path><path id="Path_2580" data-name="Path 2580" d="M398.661,665.588a83.46,83.46,0,0,1-69.607-37.46,15.021,15.021,0,0,0-12.521-6.722h0a15.056,15.056,0,0,0-12.588,23.333,113.5,113.5,0,0,0,189.432,0,15.056,15.056,0,0,0-12.588-23.333h0a15.024,15.024,0,0,0-12.523,6.724A83.456,83.456,0,0,1,398.661,665.588Z" transform="translate(150.323 84.33)" fill="#007fb2" opacity="0.8"></path><g id="Group_1312" data-name="Group 1312" transform="translate(296.629 782.771)"><g id="Group_1307" data-name="Group 1307"><path id="Path_2581" data-name="Path 2581" d="M215.792,668.571a1.776,1.776,0,0,1-1.068-.36l-.218-.168a1.772,1.772,0,1,1,2.235-2.751l.12.1a1.772,1.772,0,0,1-1.07,3.183Z" transform="translate(-213.852 -664.897)" fill="#809aad"></path></g><g id="Group_1308" data-name="Group 1308" transform="translate(5.888 4.311)"><path id="Path_2582" data-name="Path 2582" d="M297.136,695.565h-.021l-.443-.005a1.771,1.771,0,0,1-1.75-1.793,1.7,1.7,0,0,1,1.791-1.75l.443.005a1.771,1.771,0,0,1-.02,3.542Zm7.087-.129a1.771,1.771,0,0,1-.082-3.541l.464-.019h.064a1.771,1.771,0,0,1,.062,3.541l-.425.018C304.278,695.436,304.25,695.436,304.223,695.436Zm-14.609-.126c-.041,0-.083,0-.126-.005l-.42-.027a1.771,1.771,0,1,1,.207-3.535l.462.03a1.771,1.771,0,0,1-.124,3.537Zm22.127-.4a1.771,1.771,0,0,1-.165-3.534l.423-.041a1.746,1.746,0,0,1,1.947,1.575,1.771,1.771,0,0,1-1.576,1.947l-.462.046C311.85,694.906,311.8,694.908,311.74,694.908Zm-29.619-.251a1.714,1.714,0,0,1-.211-.012l-.437-.051a1.772,1.772,0,0,1,.418-3.519l.438.053a1.771,1.771,0,0,1-.207,3.53Zm37.1-.678a1.771,1.771,0,0,1-.266-3.521l.436-.067a1.771,1.771,0,1,1,.544,3.5l-.443.067A1.782,1.782,0,0,1,319.217,693.978Zm-44.546-.379a1.891,1.891,0,0,1-.314-.027l-.436-.076a1.772,1.772,0,0,1,.624-3.488l.436.076a1.771,1.771,0,0,1-.31,3.514Zm51.96-.953a1.771,1.771,0,0,1-.349-3.507l.43-.089a1.771,1.771,0,1,1,.708,3.47l-.437.092A1.837,1.837,0,0,1,326.632,692.646Zm-59.341-.507a1.825,1.825,0,0,1-.4-.044l-.43-.1a1.771,1.771,0,1,1,.792-3.452l.43.1a1.771,1.771,0,0,1-.393,3.5Zm66.672-1.227a1.772,1.772,0,0,1-.452-3.484l.423-.113a1.771,1.771,0,0,1,.918,3.422l-.436.115A1.743,1.743,0,0,1,333.963,690.912ZM260,690.28a1.788,1.788,0,0,1-.5-.071l-.427-.122a1.772,1.772,0,0,1,1-3.4l.425.122a1.771,1.771,0,0,1-.5,3.472Zm81.191-1.5a1.771,1.771,0,0,1-.542-3.457l.429-.138a1.771,1.771,0,0,1,1.072,3.376l-.418.136A1.794,1.794,0,0,1,341.19,688.778Zm-88.374-.751a1.779,1.779,0,0,1-.585-.1l-.416-.145a1.772,1.772,0,1,1,1.169-3.346l.416.145a1.772,1.772,0,0,1-.585,3.445Zm95.47-1.768a1.772,1.772,0,0,1-.641-3.424l.423-.163a1.771,1.771,0,1,1,1.259,3.311l-.4.156A1.77,1.77,0,0,1,348.285,686.259Zm-102.516-.873a1.76,1.76,0,0,1-.684-.136l-.391-.161a1.77,1.77,0,1,1,1.328-3.282l.429.175a1.771,1.771,0,0,1-.682,3.4Zm109.466-2.033a1.771,1.771,0,0,1-.726-3.387l.406-.182a1.771,1.771,0,0,1,1.449,3.233l-.4.181A1.756,1.756,0,0,1,355.236,683.352Zm-116.363-.988a1.778,1.778,0,0,1-.767-.174l-.4-.191a1.771,1.771,0,1,1,1.534-3.192l.4.19a1.771,1.771,0,0,1-.771,3.367Zm123.144-2.289a1.771,1.771,0,0,1-.811-3.346l.379-.2a1.772,1.772,0,1,1,1.651,3.135l-.409.213A1.773,1.773,0,0,1,362.016,680.075Zm-129.864-1.1a1.793,1.793,0,0,1-.832-.207l-.4-.22a1.772,1.772,0,1,1,1.7-3.11l.374.2a1.771,1.771,0,0,1-.836,3.334Zm136.458-2.536a1.772,1.772,0,0,1-.891-3.3l.356-.211a1.772,1.772,0,0,1,1.832,3.034l-.409.239A1.751,1.751,0,0,1,368.611,676.435Zm-142.984-1.212a1.773,1.773,0,0,1-.923-.259l-.383-.236a1.771,1.771,0,0,1,1.858-3.016l.372.228a1.771,1.771,0,0,1-.925,3.282Zm-6.318-4.1a1.766,1.766,0,0,1-1.013-.321l-.363-.253a1.77,1.77,0,1,1,2.03-2.9l.363.251a1.772,1.772,0,0,1-1.017,3.224Z" transform="translate(-217.176 -667.331)" fill="#809aad"></path></g><g id="Group_1309" data-name="Group 1309" transform="translate(161.995 5.773)"><path id="Path_2583" data-name="Path 2583" d="M307.082,671.768a1.771,1.771,0,0,1-1-3.238l.1-.067a1.819,1.819,0,0,1,2.5.457,1.726,1.726,0,0,1-.432,2.425l-.179.119A1.754,1.754,0,0,1,307.082,671.768Z" transform="translate(-305.309 -668.156)" fill="#809aad"></path></g><g id="Group_1311" data-name="Group 1311" transform="translate(156.034 1.306)"><g id="Group_1310" data-name="Group 1310"><path id="Path_2584" data-name="Path 2584" d="M309.532,679.98l-1.521-6.962-6.068-3.738,16.477-3.645Z" transform="translate(-301.943 -665.634)" fill="#809aad"></path></g></g></g><g id="Group_1318" data-name="Group 1318" transform="translate(131.844 519.445)"><g id="Group_1313" data-name="Group 1313" transform="translate(0 29.309)"><path id="Path_2585" data-name="Path 2585" d="M122.592,536.013a1.77,1.77,0,0,1-1.072-3.181l1.07,1.41-1-1.463,1.173,1.332,1.07,1.412-.17.131A1.764,1.764,0,0,1,122.592,536.013Z" transform="translate(-120.819 -532.779)" fill="#809aad"></path></g><g id="Group_1314" data-name="Group 1314" transform="translate(5.889)"><path id="Path_2586" data-name="Path 2586" d="M125.917,544.466a1.771,1.771,0,0,1-1.017-3.222l.227-.158a1.845,1.845,0,0,1,2.536.4,1.7,1.7,0,0,1-.372,2.414l-.149.1-.213.147A1.761,1.761,0,0,1,125.917,544.466Zm6.3-4.118a1.772,1.772,0,0,1-.935-3.277l.4-.245a1.771,1.771,0,1,1,1.828,3.034l-.356.22A1.766,1.766,0,0,1,132.219,540.348Zm143.736-1.22a1.77,1.77,0,0,1-.9-.248l-.372-.218a1.772,1.772,0,0,1,1.789-3.059l.393.232a1.77,1.77,0,0,1-.907,3.293Zm-137.222-2.552a1.772,1.772,0,0,1-.85-3.326l.406-.219a1.771,1.771,0,1,1,1.667,3.126l-.374.2A1.762,1.762,0,0,1,138.734,536.575Zm130.641-1.109a1.759,1.759,0,0,1-.827-.206l-.374-.195a1.771,1.771,0,0,1,1.617-3.151l.414.214a1.771,1.771,0,0,1-.831,3.337Zm-123.932-2.3a1.771,1.771,0,0,1-.769-3.367l.4-.191a1.771,1.771,0,0,1,1.534,3.194l-.4.189A1.737,1.737,0,0,1,145.444,533.164Zm117.162-1a1.785,1.785,0,0,1-.724-.156l-.4-.182a1.77,1.77,0,1,1,1.449-3.231l.406.181a1.772,1.772,0,0,1-.726,3.388Zm-110.279-2.048a1.772,1.772,0,0,1-.666-3.413l.388-.158a1.771,1.771,0,1,1,1.373,3.264l-.43.177A1.761,1.761,0,0,1,152.327,530.121Zm103.341-.88a1.772,1.772,0,0,1-.622-.112l-.375-.143a1.8,1.8,0,0,1-1.04-2.3,1.748,1.748,0,0,1,2.262-1.022l.059.021.338.131a1.771,1.771,0,0,1-.622,3.429Zm-96.3-1.784a1.771,1.771,0,0,1-.583-3.443l.418-.145a1.771,1.771,0,1,1,1.164,3.346l-.416.145A1.766,1.766,0,0,1,159.366,527.457Zm89.212-.76a1.79,1.79,0,0,1-.54-.085l-.42-.135a1.773,1.773,0,0,1,1.077-3.378l.425.14a1.771,1.771,0,0,1-.542,3.458Zm-82.04-1.516a1.771,1.771,0,0,1-.5-3.472l.422-.12a1.771,1.771,0,1,1,1,3.4l-.427.124A1.8,1.8,0,0,1,166.538,525.18Zm74.822-.639a1.835,1.835,0,0,1-.453-.058l-.432-.117a1.77,1.77,0,1,1,.914-3.42l.425.112a1.771,1.771,0,0,1-.453,3.484ZM173.823,523.3a1.771,1.771,0,0,1-.393-3.5l.43-.1a1.772,1.772,0,1,1,.79,3.454l-.43.1A1.7,1.7,0,0,1,173.823,523.3Zm60.214-.515a1.705,1.705,0,0,1-.353-.035l-.436-.09a1.772,1.772,0,0,1,.7-3.473l.434.09a1.772,1.772,0,0,1-.349,3.509Zm-52.837-.967a1.772,1.772,0,0,1-.31-3.516l.434-.076a1.772,1.772,0,1,1,.625,3.488l-.436.076A1.724,1.724,0,0,1,181.2,521.815Zm45.428-.388a1.747,1.747,0,0,1-.271-.021l-.441-.067a1.771,1.771,0,0,1,.538-3.5l.437.067a1.771,1.771,0,0,1-.264,3.521Zm-37.983-.7a1.771,1.771,0,0,1-.206-3.53l.439-.051a1.771,1.771,0,0,1,.416,3.518l-.439.053A1.658,1.658,0,0,1,188.645,520.731Zm30.507-.259a1.685,1.685,0,0,1-.186-.011l-.423-.041a1.771,1.771,0,0,1-1.6-1.929,1.742,1.742,0,0,1,1.931-1.6l.461.046a1.771,1.771,0,0,1-.184,3.532Zm-23.012-.418a1.771,1.771,0,0,1-.1-3.539l.418-.027a1.77,1.77,0,1,1,.252,3.532l-.462.03C196.208,520.053,196.174,520.055,196.139,520.055Zm15.5-.135c-.021,0-.042,0-.062,0l-.468-.018a1.771,1.771,0,1,1,.167-3.539l.423.018a1.771,1.771,0,0,1-.06,3.541Zm-7.978-.14a1.771,1.771,0,0,1-.02-3.542l.443-.005h.021a1.771,1.771,0,0,1,.019,3.543l-.443.005Z" transform="translate(-124.144 -516.232)" fill="#809aad"></path></g><g id="Group_1315" data-name="Group 1315" transform="translate(161.995 23.158)"><path id="Path_2587" data-name="Path 2587" d="M214.226,532.969a1.771,1.771,0,0,1-.972-.29l-.19-.126a1.771,1.771,0,0,1,1.966-2.947l.17.112a1.772,1.772,0,0,1-.974,3.252Z" transform="translate(-212.276 -529.307)" fill="#809aad"></path></g><g id="Group_1317" data-name="Group 1317" transform="translate(156.034 16.893)"><g id="Group_1316" data-name="Group 1316"><path id="Path_2588" data-name="Path 2588" d="M208.911,536.47l6.067-3.738,1.522-6.962,8.888,14.345Z" transform="translate(-208.911 -525.769)" fill="#809aad"></path></g></g></g><g id="Group_1324" data-name="Group 1324" transform="translate(463.347 519.445)"><g id="Group_1319" data-name="Group 1319" transform="translate(0 29.309)"><path id="Path_2589" data-name="Path 2589" d="M309.748,536.013a1.77,1.77,0,0,1-1.072-3.181l1.07,1.41-1-1.463,1.174,1.332,1.07,1.412-.17.131A1.764,1.764,0,0,1,309.748,536.013Z" transform="translate(-307.975 -532.779)" fill="#809aad"></path></g><g id="Group_1320" data-name="Group 1320" transform="translate(5.889)"><path id="Path_2590" data-name="Path 2590" d="M313.073,544.466a1.77,1.77,0,0,1-1.017-3.222l.227-.158a1.845,1.845,0,0,1,2.536.4,1.7,1.7,0,0,1-.374,2.414l-.147.1-.213.147A1.761,1.761,0,0,1,313.073,544.466Zm6.3-4.118a1.771,1.771,0,0,1-.935-3.277l.4-.245a1.771,1.771,0,0,1,1.828,3.034l-.358.22A1.76,1.76,0,0,1,319.375,540.348Zm143.736-1.22a1.765,1.765,0,0,1-.9-.248l-.372-.218a1.772,1.772,0,0,1,1.789-3.059l.393.232a1.771,1.771,0,0,1-.907,3.293ZM325.89,536.575a1.772,1.772,0,0,1-.85-3.326l.4-.219a1.772,1.772,0,0,1,1.669,3.126l-.374.2A1.767,1.767,0,0,1,325.89,536.575Zm130.64-1.109a1.769,1.769,0,0,1-.827-.206l-.372-.195a1.771,1.771,0,0,1,1.617-3.151l.414.214a1.772,1.772,0,0,1-.832,3.337Zm-123.932-2.3a1.77,1.77,0,0,1-.767-3.367l.4-.191a1.771,1.771,0,1,1,1.534,3.194l-.4.189A1.744,1.744,0,0,1,332.6,533.164Zm117.164-1a1.785,1.785,0,0,1-.724-.156l-.406-.182a1.771,1.771,0,0,1,1.451-3.231l.4.181a1.772,1.772,0,0,1-.724,3.388Zm-110.279-2.048a1.772,1.772,0,0,1-.666-3.413l.388-.158a1.771,1.771,0,1,1,1.373,3.264l-.43.177A1.761,1.761,0,0,1,339.483,530.121Zm103.339-.88a1.779,1.779,0,0,1-.622-.112l-.376-.143a1.8,1.8,0,0,1-1.04-2.3,1.749,1.749,0,0,1,2.264-1.022l.058.021.337.131a1.771,1.771,0,0,1-.622,3.429Zm-96.3-1.784a1.771,1.771,0,0,1-.583-3.443l.418-.145a1.771,1.771,0,0,1,1.164,3.346l-.418.145A1.764,1.764,0,0,1,346.522,527.457Zm89.212-.76a1.81,1.81,0,0,1-.542-.085l-.418-.135a1.772,1.772,0,0,1,1.075-3.378l.425.14a1.771,1.771,0,0,1-.54,3.458Zm-82.04-1.516a1.771,1.771,0,0,1-.5-3.472l.42-.12a1.771,1.771,0,1,1,1,3.4l-.429.124A1.8,1.8,0,0,1,353.694,525.18Zm74.822-.639a1.849,1.849,0,0,1-.455-.058l-.43-.117a1.77,1.77,0,1,1,.912-3.42l.427.112a1.772,1.772,0,0,1-.453,3.484ZM360.979,523.3a1.772,1.772,0,0,1-.4-3.5l.432-.1a1.772,1.772,0,0,1,.79,3.454l-.43.1A1.7,1.7,0,0,1,360.979,523.3Zm60.214-.515a1.693,1.693,0,0,1-.352-.035l-.436-.09a1.772,1.772,0,0,1,.7-3.473l.436.09a1.772,1.772,0,0,1-.349,3.509Zm-52.837-.967a1.772,1.772,0,0,1-.31-3.516l.434-.076a1.772,1.772,0,0,1,.625,3.488l-.437.076A1.692,1.692,0,0,1,368.356,521.815Zm45.426-.388a1.782,1.782,0,0,1-.271-.021l-.439-.067a1.771,1.771,0,1,1,.538-3.5l.438.067a1.771,1.771,0,0,1-.266,3.521Zm-37.981-.7a1.771,1.771,0,0,1-.206-3.53l.438-.051a1.771,1.771,0,0,1,.418,3.518l-.439.053A1.676,1.676,0,0,1,375.8,520.731Zm30.507-.259a1.693,1.693,0,0,1-.188-.011l-.422-.041a1.769,1.769,0,0,1-1.6-1.929,1.74,1.74,0,0,1,1.929-1.6l.461.046a1.771,1.771,0,0,1-.182,3.532Zm-23.014-.418a1.771,1.771,0,0,1-.1-3.539l.418-.027a1.77,1.77,0,1,1,.251,3.532l-.462.03C383.364,520.053,383.329,520.055,383.293,520.055Zm15.5-.135c-.019,0-.041,0-.062,0l-.466-.018a1.771,1.771,0,1,1,.167-3.539l.422.018a1.771,1.771,0,0,1-.06,3.541Zm-7.976-.14a1.771,1.771,0,0,1-.019-3.542l.443-.005h.021a1.771,1.771,0,0,1,.02,3.543l-.443.005Z" transform="translate(-311.3 -516.232)" fill="#809aad"></path></g><g id="Group_1321" data-name="Group 1321" transform="translate(161.994 23.158)"><path id="Path_2591" data-name="Path 2591" d="M401.381,532.969a1.765,1.765,0,0,1-.971-.29l-.19-.126a1.771,1.771,0,0,1,1.964-2.947l.17.112a1.771,1.771,0,0,1-.974,3.252Z" transform="translate(-399.431 -529.307)" fill="#809aad"></path></g><g id="Group_1323" data-name="Group 1323" transform="translate(156.034 16.893)"><g id="Group_1322" data-name="Group 1322"><path id="Path_2592" data-name="Path 2592" d="M396.066,536.47l6.068-3.738,1.522-6.962,8.888,14.345Z" transform="translate(-396.066 -525.769)" fill="#809aad"></path></g></g></g><circle id="Ellipse_116" data-name="Ellipse 116" cx="6.24" cy="6.24" r="6.24" transform="translate(211.859 599.426)" fill="#002d4b"></circle><line id="Line_144" data-name="Line 144" y1="93.601" transform="translate(218.099 512.066)" fill="none" stroke="#002d4b" stroke-miterlimit="10" stroke-width="1"></line><circle id="Ellipse_117" data-name="Ellipse 117" cx="6.24" cy="6.24" r="6.24" transform="translate(541.021 599.426)" fill="#002d4b"></circle><line id="Line_145" data-name="Line 145" y1="93.601" transform="translate(547.261 512.066)" fill="none" stroke="#002d4b" stroke-miterlimit="10" stroke-width="1"></line><circle id="Ellipse_118" data-name="Ellipse 118" cx="6.24" cy="6.24" r="6.24" transform="translate(377.22 725.787)" fill="#002d4b"></circle><line id="Line_146" data-name="Line 146" y2="94.381" transform="translate(383.46 732.027)" fill="none" stroke="#002d4b" stroke-miterlimit="10" stroke-width="1"></line><circle id="Ellipse_119" data-name="Ellipse 119" cx="6.24" cy="6.24" r="6.24" transform="translate(707.162 725.787)" fill="#002d4b"></circle><line id="Line_147" data-name="Line 147" y2="94.381" transform="translate(713.403 732.027)" fill="none" stroke="#002d4b" stroke-miterlimit="10" stroke-width="1"></line><path id="Path_2593" data-name="Path 2593" d="M154.805,639.23l54.752-54.752,2.358,4.977-.524,7.6-5.239,2.882h-3.406l12.39,12.565-11.343,10.226-2.7-7.325L192,613.557l-4.453,1.834-3.93,7.073,2.882,6.811,4.453,2.882,2.358.524L181.526,643.16l-8.121-8.383-3.144-2.1-.786,4.715-4.191,3.93-5.5.524Z" transform="translate(37.237 55.85)" fill="#bce3ee"></path><g id="Group_1326" data-name="Group 1326" transform="translate(185.681 634.197)"><g id="Group_1325" data-name="Group 1325"><path id="Path_2594" data-name="Path 2594" d="M184.314,648.146h0a1.492,1.492,0,0,1-1.052-.436l-8.964-8.966a10.755,10.755,0,0,1-10.337,7.8h0a10.75,10.75,0,0,1-2.949-21.085L151.65,616.1a1.488,1.488,0,0,1,0-2.1l11.674-11.674a1.488,1.488,0,0,1,2.5.732c.349,1.578,1.293,4.474,2.345,5.526a7.774,7.774,0,1,0,5.695-13.246,1.487,1.487,0,0,1-1.017-2.538l11.338-11.338a1.488,1.488,0,0,1,2.1,0l9.365,9.365A10.749,10.749,0,1,1,208.938,604.1l8.968,8.97a1.488,1.488,0,0,1,0,2.1l-11.338,11.338a1.488,1.488,0,0,1-2.538-1.019,7.779,7.779,0,1,0-7.942,7.939,1.486,1.486,0,0,1,1.02,2.538l-11.742,11.744A1.5,1.5,0,0,1,184.314,648.146Zm-11.106-14.082a1.484,1.484,0,0,1,1.052.436l10.054,10.055,8.658-8.658a10.745,10.745,0,1,1,13.522-13.522l8.258-8.258-10.057-10.059a1.487,1.487,0,0,1,1.05-2.54h.041a7.772,7.772,0,1,0-7.551-7.547,1.487,1.487,0,0,1-2.538,1.089l-10.454-10.454-8.258,8.256a10.634,10.634,0,0,1,4.286,2.616,10.747,10.747,0,0,1-15.2,15.2,12.287,12.287,0,0,1-2.432-4.471l-8.835,8.835,10.45,10.452a1.488,1.488,0,0,1,.315,1.64,1.547,1.547,0,0,1-1.406.9,7.6,7.6,0,0,0-5.7,2.266,7.773,7.773,0,0,0,5.5,13.269h0a7.758,7.758,0,0,0,7.76-7.978,1.492,1.492,0,0,1,.9-1.406A1.471,1.471,0,0,1,173.208,634.065Z" transform="translate(-151.214 -581.017)" fill="#002d4b"></path></g></g><path id="Path_2595" data-name="Path 2595" d="M438.839,594.608l3.72,6.662,7.008,4.932,1.9.606.173,7.008,2.336,7.96,2.163,2.422.519.519,2.423-2.423,2.682-7.441-.086-7.7,5.8-3.288,6.489-6.662.606-3.547L468,592.878l-8.219,3.028-3.547,2.423-3.98-3.2-7.268-1.99-4.153.519Z" transform="translate(256.303 62.327)" fill="#bce3ee"></path><g id="Group_1327" data-name="Group 1327" transform="translate(680.27 631.651)"><path id="Path_2596" data-name="Path 2596" d="M457.563,582.2a17.31,17.31,0,0,1,17.206,16.781l2.62-.064a19.708,19.708,0,0,0-19.826-19.337,19.944,19.944,0,0,0-19.82,19.337l2.62.064A17.309,17.309,0,0,1,457.563,582.2Z" transform="translate(-424.814 -579.58)" fill="#002d4b"></path><path id="Path_2597" data-name="Path 2597" d="M476.113,592.2a19.713,19.713,0,0,0-12.92,4.821,19.928,19.928,0,1,0,6.552,11.343,19.852,19.852,0,0,0,12.264-12.484,17.2,17.2,0,1,1-13.991,31.325l-1.235,2.312a19.826,19.826,0,1,0,9.329-37.317Zm-12.92,8.5a17.193,17.193,0,0,1,3.367,5.82,16.492,16.492,0,0,1-6.733,0A17.2,17.2,0,0,1,463.194,600.7Zm-1.863-1.839a19.794,19.794,0,0,0-4.028,6.949A17.236,17.236,0,0,1,446.9,595.157a17.34,17.34,0,0,1,3.372-.335A17.127,17.127,0,0,1,461.33,598.865Zm-28.268,13.162a17.219,17.219,0,0,1,11.317-16.145,19.877,19.877,0,0,0,12.264,12.484,19.605,19.605,0,0,0,4.68,16.827,17.192,17.192,0,0,1-28.261-13.166Zm34.417,0a17.1,17.1,0,0,1-4.29,11.325,16.929,16.929,0,0,1-4.007-14.29,18.981,18.981,0,0,0,8.022,0A17.22,17.22,0,0,1,467.48,612.027Zm1.608-6.212a19.82,19.82,0,0,0-4.031-6.95,17.145,17.145,0,0,1,14.438-3.705A17.227,17.227,0,0,1,469.088,605.815Z" transform="translate(-430.443 -569.844)" fill="#002d4b"></path></g><rect id="Rectangle_1257" data-name="Rectangle 1257" width="9.938" height="18.871" transform="translate(380.063 667.96)" fill="#bce3ee"></rect><rect id="Rectangle_1258" data-name="Rectangle 1258" width="9.938" height="12.154" transform="translate(400.257 667.96)" fill="#bce3ee"></rect><g id="Group_1328" data-name="Group 1328" transform="translate(351.082 632.393)"><path id="Path_2598" data-name="Path 2598" d="M256.852,591.394h7.663v8.179h2.617v-10.8h-12.9v10.8h2.617Z" transform="translate(-237.158 -573.229)" fill="#002d4b"></path><path id="Path_2599" data-name="Path 2599" d="M270.34,618.027h-7.663V600.086H260.06v20.558h12.9V600.086H270.34Z" transform="translate(-232.665 -564.506)" fill="#002d4b"></path><path id="Path_2600" data-name="Path 2600" d="M314.274,608.426H253.135v-25.5a1.308,1.308,0,1,0-2.616,0v6.067H245.9a1.308,1.308,0,1,0,0,2.616h4.616v8.637H245.9a1.308,1.308,0,1,0,0,2.616h4.616v13.72H245.9a1.308,1.308,0,1,0,0,2.616h4.616v8.637H245.9a1.309,1.309,0,1,0,0,2.618h4.616v6.065a1.308,1.308,0,1,0,2.616,0V611.044h61.139a1.309,1.309,0,1,0,0-2.618Z" transform="translate(-244.594 -578.752)" fill="#002d4b"></path><path id="Path_2601" data-name="Path 2601" d="M268.474,582.616h7.663v23.727h2.617V580h-12.9v26.344h2.617Z" transform="translate(-228.195 -579.999)" fill="#002d4b"></path><path id="Path_2602" data-name="Path 2602" d="M281.946,610.707h-7.664V600.086h-2.617v13.237h12.9V600.086h-2.617Z" transform="translate(-223.715 -564.506)" fill="#002d4b"></path></g><circle id="Ellipse_120" data-name="Ellipse 120" cx="15.849" cy="15.849" r="15.849" transform="translate(531.984 648.415)" fill="#bce3ee"></circle><g id="Group_1337" data-name="Group 1337" transform="translate(514.965 631.09)"><g id="Group_1329" data-name="Group 1329" transform="translate(23.394 26.171)"><path id="Path_2603" data-name="Path 2603" d="M357.338,609.221l-.048,0a1.319,1.319,0,0,1-1.027-.549l-5.687-7.875a1.326,1.326,0,1,1,2.15-1.552l4.689,6.494,9.389-11.223a1.326,1.326,0,1,1,2.035,1.7l-10.484,12.53A1.325,1.325,0,0,1,357.338,609.221Z" transform="translate(-350.324 -594.038)" fill="#002d4b"></path></g><g id="Group_1336" data-name="Group 1336"><g id="Group_1334" data-name="Group 1334"><g id="Group_1333" data-name="Group 1333"><g id="Group_1332" data-name="Group 1332"><g id="Group_1330" data-name="Group 1330"><path id="Path_2604" data-name="Path 2604" d="M374.764,645.491h-9.071a1.325,1.325,0,0,1-1.305-1.1l-1.309-7.7a25.132,25.132,0,0,1-5.023-2.085l-6.323,4.538a1.324,1.324,0,0,1-1.711-.14l-6.414-6.412a1.326,1.326,0,0,1-.14-1.709l4.54-6.323a25.079,25.079,0,0,1-2.088-5.023l-7.7-1.311a1.327,1.327,0,0,1-1.1-1.307v-9.072a1.325,1.325,0,0,1,1.1-1.305l7.7-1.307a25.128,25.128,0,0,1,2.494-5.741,1.326,1.326,0,1,1,2.28,1.353,22.493,22.493,0,0,0-2.436,5.881,1.325,1.325,0,0,1-1.063.978l-7.427,1.263v6.832l7.429,1.265a1.326,1.326,0,0,1,1.061.978,22.456,22.456,0,0,0,2.462,5.92,1.327,1.327,0,0,1-.062,1.453l-4.379,6.1,4.823,4.821,6.1-4.379a1.328,1.328,0,0,1,1.451-.062,22.5,22.5,0,0,0,5.921,2.458,1.328,1.328,0,0,1,.978,1.063l1.263,7.431h6.832l1.265-7.429a1.33,1.33,0,0,1,.978-1.063,22.6,22.6,0,0,0,5.923-2.46,1.331,1.331,0,0,1,1.451.062l6.1,4.379,4.821-4.821-4.377-6.1a1.328,1.328,0,0,1-.062-1.451,22.709,22.709,0,0,0,2.473-5.974,1.324,1.324,0,0,1,1.07-.981l7.406-1.219v-6.819l-7.406-1.213a1.323,1.323,0,0,1-1.07-.983,22.471,22.471,0,0,0-2.446-5.93,1.326,1.326,0,0,1,.06-1.442l4.356-6.143-4.83-4.832-6.146,4.359a1.323,1.323,0,0,1-1.442.058,22.574,22.574,0,0,0-5.928-2.448,1.326,1.326,0,0,1-.981-1.068l-1.219-7.411h-6.8l-.4,2.669a1.325,1.325,0,0,1-2.621-.388l.562-3.8a1.324,1.324,0,0,1,1.311-1.132h9.071a1.326,1.326,0,0,1,1.309,1.109l1.265,7.682a25.053,25.053,0,0,1,5.027,2.076l6.371-4.517a1.321,1.321,0,0,1,1.7.143l6.414,6.414a1.326,1.326,0,0,1,.145,1.7l-4.517,6.368a24.95,24.95,0,0,1,2.076,5.032l7.677,1.258a1.324,1.324,0,0,1,1.111,1.307v9.072a1.324,1.324,0,0,1-1.109,1.307l-7.678,1.263a25.384,25.384,0,0,1-2.1,5.073l4.536,6.322a1.324,1.324,0,0,1-.14,1.709L390.438,639a1.322,1.322,0,0,1-1.709.14l-6.322-4.538a25.285,25.285,0,0,1-5.023,2.087l-1.312,7.7A1.325,1.325,0,0,1,374.764,645.491Z" transform="translate(-337.117 -579.263)" fill="#002d4b"></path></g><g id="Group_1331" data-name="Group 1331" transform="translate(6.102 6.106)"><path id="Path_2605" data-name="Path 2605" d="M344.048,594.79a1.328,1.328,0,0,1-1.08-.554l-2.157-3.018a1.326,1.326,0,0,1,.14-1.709l6.414-6.41a1.326,1.326,0,0,1,1.7-.144l6.371,4.517a25.244,25.244,0,0,1,5.87-2.3,1.325,1.325,0,0,1,.654,2.568,22.556,22.556,0,0,0-5.927,2.446,1.323,1.323,0,0,1-1.442-.058l-6.146-4.359-4.829,4.825,1.506,2.1a1.326,1.326,0,0,1-1.077,2.1Z" transform="translate(-340.562 -582.71)" fill="#002d4b"></path></g></g></g></g><g id="Group_1335" data-name="Group 1335" transform="translate(15.878 15.879)"><path id="Path_2606" data-name="Path 2606" d="M363.315,622.7a17.254,17.254,0,0,1-17.234-17.234,17.073,17.073,0,0,1,3.569-10.5,1.326,1.326,0,0,1,2.1,1.617,14.44,14.44,0,0,0-3.018,8.886,14.573,14.573,0,1,0,7.652-12.836,1.325,1.325,0,0,1-1.261-2.331,17.236,17.236,0,1,1,8.192,32.4Z" transform="translate(-346.081 -588.228)" fill="#002d4b"></path></g></g></g></g><text id="_1._Use_Case_Identification" data-name="1. Use Case Identification" transform="translate(353 1063)" fill="#328cc1" font-size="18" font-family="Lato-Bold, Lato" font-weight="700"><tspan x="38.496" y="18">1. Use Case </tspan><tspan x="29.626" y="38">Identification</tspan></text><text id="_2._Data_Processing" data-name="2. Data Processing" transform="translate(516 1436)" fill="#328cc1" font-size="18" font-family="Lato-Bold, Lato" font-weight="700"><tspan x="55.385" y="18">2. Data </tspan><tspan x="40.399" y="38">Processing</tspan></text><text id="_3._Model_Development" data-name="3. Model Development" transform="translate(700 1063)" fill="#328cc1" font-size="18" font-family="Lato-Bold, Lato" font-weight="700"><tspan x="29.152" y="18">3. Model </tspan><tspan x="9.514" y="38">Development</tspan></text><text id="_4._Insights_Integration" data-name="4. Insights Integration" transform="translate(860 1436)" fill="#328cc1" font-size="18" font-family="Lato-Bold, Lato" font-weight="700"><tspan x="29.514" y="18">4. Insights </tspan><tspan x="24.694" y="38">Integration</tspan></text></g></svg> 